<svg xmlns="http://www.w3.org/2000/svg" width="595.28" height="283" viewBox="0 0 595.28 283"><path d="M211.352 184.043c-7.062 12.094-9.654 18.403-15.799 24.836-6.146 6.433-13.463 10.661-21.945 10.661-5.562 0-10.096-2.194-13.607-6.583-3.51-4.389-6.144-10.163-7.898-17.337-1.758-7.166-2.854-15.431-3.292-24.797-.44-9.361-.51-19.019-.221-28.969.295-9.944.879-19.969 1.755-30.064.879-10.095.6-10.323 1.188-18.812h-10.534c-4.677 0-8.263-.879-10.752-2.634-2.482-1.756-3.8-3.656-3.951-5.707-.143-2.044.955-3.95 3.292-5.705 2.346-1.756 6.146-2.634 11.411-2.634h11.852c0-2.044 1.074-13.075 1.226-14.982.145-1.899.221-3.579.221-5.047 0-7.023 1.899-11.92 5.704-14.702 3.8-2.779 7.9-4.021 12.289-3.732 4.391.295 8.264 1.908 11.631 4.829 3.361 2.928 4.609 6.733 3.731 11.41l-3.201 20.469h10.533c5.556 0 9.581.953 12.069 2.853 2.483 1.907 3.731 3.95 3.731 6.145 0 2.195-1.315 4.171-3.949 5.926s-6.296 2.634-10.973 2.634h-13.167c-1.173 10.533-1.189 13.107-2.066 25.835-.878 12.729-1.468 24.73-1.756 35.991-.295 11.268-.15 20.627.44 28.09.582 7.461 1.897 11.191 3.949 11.191 1.755 0 4.169-2.634 7.241-7.899 3.072-5.267 6.214-11.336 9.438-18.215 3.217-6.872 7.013-13.663 9.785-20.189 4.917-11.578 12.035-24.095 16.148-23.337 10.899 2.003-3.216 41.112-14.523 60.475zm328.726-68.865c12.586 3.691-13.293 75.628-20.12 90.511-4.101 8.929-9.437 16.897-16.02 23.92-6.584 7.022-14.416 10.534-23.482 10.534-6.735 0-11.927-2.708-15.581-8.121-3.663-5.409-6.516-12.507-8.559-21.285-2.347 5.562-5.487 10.534-9.436 14.922-3.951 4.391-8.854 7.612-14.704 9.656-6.439 2.339-12.001 2.634-16.678.878-8.49-2.044-15.218-6.651-20.191-13.824-4.976-7.168-8.413-15.507-10.312-25.019-1.901-9.505-2.121-19.381-.661-29.627 1.469-10.237 4.46-19.456 8.998-27.65 4.533-8.188 10.604-14.553 18.215-19.093 7.606-4.531 16.822-5.924 27.65-4.169 5.85.877 10.973 3.951 15.361 9.218 1.166-16.679 2.483-32.185 3.952-46.524 1.46-14.332 2.194-25.161 2.194-32.479 0-7.022 1.898-11.919 5.706-14.705 3.797-2.776 7.898-4.018 12.288-3.73 4.389.295 8.264 1.908 11.631 4.829 3.36 2.928 4.608 6.734 3.73 11.411-.59 3.512-1.469 10.172-2.633 19.971-1.172 9.807-2.415 21.143-3.73 34.015a1055.619 1055.619 0 0 0-3.293 39.941c-.876 13.757-1.316 26.484-1.316 38.184 0 11.706.509 21.287 1.536 28.748 1.022 7.462 2.998 11.192 5.926 11.192 2.633 0 5.335-2.483 8.121-7.462 2.775-4.972 5.484-10.753 8.119-17.336 2.632-6.583 4.231-13.256 6.801-19.312 5.315-12.524 13.434-61.421 26.488-57.594zm-99.531 40.257c-.59-4.094-1.688-8.188-3.293-12.289-1.609-4.094-4.024-6.434-7.242-7.022-4.683-.88-8.854.589-12.509 4.388-3.66 3.807-6.659 8.711-8.996 14.705-2.347 5.999-4.027 12.658-5.049 19.97-1.028 7.316-1.316 14.264-.876 20.847.438 6.585 1.678 12.146 3.73 16.679 2.043 4.54 4.972 7.099 8.778 7.681 3.8.59 7.387-1.164 10.753-5.267 3.361-4.094 6.287-9.361 8.778-15.8 2.482-6.433 4.312-13.607 5.484-21.507 1.168-7.902 1.317-15.363.442-22.385z"/><path d="M280.868 202.895c-2.28 5.588-5.486 10.533-9.436 14.923-3.951 4.39-8.854 7.61-14.703 9.654-6.44 2.34-12.001 2.634-16.678.88-8.491-2.045-15.219-6.652-20.192-13.826-4.976-7.167-8.413-15.506-10.312-25.018-1.9-9.506-2.121-19.38-.66-29.627 1.468-10.239 4.459-19.456 8.997-27.65 4.534-8.188 10.604-14.553 18.215-19.094 7.606-4.531 16.823-5.924 27.651-4.168 5.85.877 10.62 4.265 15.361 9.218 18.193 19.004 12.748 57.777 1.757 84.708-2.28 5.587 2.802-6.865 0 0zm-15.769-55.303c-.589-4.094-1.688-8.188-3.293-12.289-1.609-4.094-4.023-6.432-7.241-7.022-4.683-.879-8.854.591-12.509 4.39-3.66 3.806-6.659 8.709-8.996 14.703-2.347 5.999-4.027 12.658-5.049 19.97-1.028 7.318-1.316 14.265-.876 20.849.438 6.584 1.678 12.144 3.73 16.678 2.043 4.54 4.972 7.099 8.778 7.68 3.799.592 7.387-1.164 10.752-5.266 3.361-4.095 6.288-9.361 8.778-15.801 2.483-6.433 4.312-13.606 5.485-21.506 1.167-7.903 1.317-15.363.441-22.386zm104.345 46.222c-2.281 5.589-5.488 10.534-9.437 14.924-3.952 4.39-8.854 7.61-14.703 9.654-6.439 2.339-12.002 2.634-16.679.879-8.49-2.044-15.218-6.652-20.19-13.825-4.976-7.168-8.414-15.507-10.312-25.019-1.901-9.505-2.121-19.38-.661-29.626 1.469-10.239 4.46-19.457 8.998-27.65 4.533-8.188 10.603-14.553 18.214-19.094 7.606-4.531 16.822-5.924 27.651-4.168 5.849.877 10.62 4.265 15.36 9.218 18.194 19.005 12.751 57.778 1.759 84.707-2.281 5.589 2.801-6.863 0 0zm-15.769-55.301c-.59-4.095-1.688-8.188-3.293-12.289-1.61-4.094-4.025-6.433-7.242-7.023-4.684-.878-8.854.591-12.51 4.39-3.659 3.807-6.659 8.71-8.995 14.704-2.347 5.999-4.027 12.658-5.05 19.97-1.027 7.318-1.315 14.265-.875 20.848.437 6.584 1.677 12.145 3.729 16.678 2.043 4.54 4.972 7.1 8.779 7.681 3.8.591 7.386-1.165 10.752-5.266 3.362-4.095 6.288-9.362 8.779-15.801 2.481-6.433 4.312-13.606 5.484-21.506 1.167-7.903 1.317-15.364.442-22.386zM140.71 228.19c39.71-25.564-35.716-41.685-53.662-50.059-17.113-7.984-5.287-17.707 4.966-20.995 13.802-4.427 47.09-7.028 51.793-23.951 5.352-19.26-121.42 8.092-91.406 51.442 6.678 9.644 45.803 20.955 56.968 24.551 11.155 3.591 18.557 6.335 12.278 9.024-9.544 4.089-20.056 1.351-32.665 1.497-6.04.07-14.45 4.078-13.594 11.069 2.674 21.812 46.372 9.623 65.322-2.578z"/></svg>